<?xml version="1.0" encoding="iso-8859-1"?>
<!-- Uploaded to: SVG Repo, www.svgrepo.com, Generator: SVG Repo Mixer Tools -->
<svg fill="#000000" height="800px" width="800px" version="1.1" id="Layer_1" xmlns="http://www.w3.org/2000/svg" xmlns:xlink="http://www.w3.org/1999/xlink" 
	 viewBox="0 0 496 496" xml:space="preserve">
<g>
	<g>
		<g>
			<path d="M488,298.168v-20.432c0-34.104-6.816-67.272-20.24-98.592c-3.936-9.2-12.944-15.144-22.952-15.144
				c-11.096,0-20.968,7.456-24.016,18.12l-4.248,14.864C412.672,210.528,400.128,220,386.032,220c-9.16,0-17.856-3.952-23.88-10.832
				l-17.936-20.496l6.464-19.368c0.872-2.672,1.32-5.432,1.32-8.224V158c0-14.336-11.664-26-26-26c-5.592,0-11.136,1.848-15.592,5.2
				l-25.56,19.168c-2.272-0.192-4.544-0.368-6.84-0.368c-15.928,0-31.432,4.552-44.84,13.168l-42.776,27.504
				c-32.76,21.056-68.816,35.168-107.16,41.928l-42.272,7.464C17.224,250.248,0,270.784,0,294.88
				c0,20.768,13.12,39.488,32.632,46.584C73.744,356.424,116.768,364,160.512,364H472c13.232,0,24-10.768,24-24v-6.112
				C496,321.6,493.24,309.296,488,298.168z M350.112,219.696c9.056,10.36,22.152,16.304,35.92,16.304
				c21.192,0,40.072-14.232,45.896-34.624l4.248-14.864c1.096-3.84,4.648-6.512,8.632-6.512c3.592,0,6.832,2.136,8.248,5.448
				C465.624,214.768,472,245.816,472,277.736v15.12C453.368,294.864,399.544,300,336,300c-1.256,0-2.352,0.04-3.576,0.048
				l-48.032-75.48c14.936-9.32,26.432-23.424,32.392-40.12c4.208,2.992,8.12,6.448,11.584,10.408L350.112,219.696z M244.464,240.28
				l23.368-7.792c0.72-0.24,1.376-0.592,2.08-0.856l43.816,68.856c-10.24,0.432-19.448,1.112-27.784,2.008L244.464,240.28z
				 M268.224,304.76c-7.824,1.16-15.192,2.416-22.416,3.672c-2.744,0.488-5.472,0.96-8.216,1.424l-34.808-55.688l25.944-8.648
				L268.224,304.76z M320.008,150c1.72-1.288,3.84-2,5.992-2c5.512,0,10,4.488,10,10v3.08c0,1.08-0.168,2.152-0.504,3.168
				l-3.864,11.576c-7.736-6.576-16.536-11.672-26.032-15.024L320.008,150z M199.048,210.128l42.776-27.504
				C252.64,175.672,265.16,172,278.008,172c8.472,0,16.736,1.696,24.448,4.728c-5.928,18.96-20.6,34.224-39.68,40.584l-94.88,31.624
				c-13.336,4.448-27.968,4.016-41.016-1.2l-5.032-2.016C149.016,237.504,174.896,225.648,199.048,210.128z M43.744,261.816
				l42.272-7.464c3.2-0.56,6.352-1.264,9.52-1.92l25.4,10.16c8.976,3.584,18.424,5.408,28.088,5.408
				c8.144,0,16.184-1.304,23.92-3.88l14.232-4.744l33.232,53.168C205.752,314.568,189.464,316,168,316
				c-58.744,0-129.52-22.152-150.864-29.312C20.296,274.112,30.456,264.16,43.744,261.816z M480,340c0,4.416-3.584,8-8,8H160.512
				c-41.872,0-83.064-7.256-122.416-21.56c-10.4-3.784-18.04-12.464-20.856-22.832C43.976,312.36,110.36,332,168,332
				c35.744,0,58.52-3.968,80.552-7.808C271.704,320.168,295.64,316,336,316c65.768,0,121.304-5.44,139.008-7.376
				c3.216,8.024,4.992,16.632,4.992,25.264V340z"/>
			<circle cx="264" cy="196" r="8"/>
			<circle cx="224" cy="212" r="8"/>
		</g>
	</g>
</g>
</svg>